<?xml version="1.0" standalone="no"?>
<!DOCTYPE svg PUBLIC "-//W3C//DTD SVG 1.1//EN" "http://www.w3.org/Graphics/SVG/1.1/DTD/svg11.dtd" >
<svg xmlns="http://www.w3.org/2000/svg">
<metadata>Generated by IcoMoon</metadata>
<defs>
<font id="icomoon" horiz-adv-x="512">
<font-face units-per-em="512" ascent="480" descent="-32" />
<missing-glyph horiz-adv-x="512" />
<glyph unicode="&#x20;" d="" horiz-adv-x="256" />
<glyph unicode="&#xe600;" d="M290.511 286.313h15.33v3.837c0 70.014-27.81 95.879-90.122 95.879-22.066 0-65.185-5.749-65.185-32.593v-25.903h-113.133v51.78c0 91.084 128.451 100.687 179.277 100.687 162.994 0 210.941-85.327 210.941-194.645v-182.156c0-13.443 7.669-21.070 21.113-21.070h38.333v-102.607h-109.313c-45.061 0-62.332 24.911-62.332 53.701 0 12.43 0.958 21.070 0.958 21.070h-1.899c0 0-37.392-86.293-147.643-86.293-87.26 0-166.834 54.659-166.834 152.462 0 153.382 210.941 165.851 290.511 165.851zM196.548 62.93c65.19 0 111.217 69.018 111.217 128.463v11.523h-21.087c-63.316 0-163.956-8.644-163.956-76.692 0.004-32.631 23.974-63.294 73.826-63.294zM543.258 84.877h104.71v-104.709h-104.71v104.709z" horiz-adv-x="648" />
<glyph unicode="&#xe601;" d="M493.087 315.618c-5.899 14.899-13.136 29.131-21.772 42.753l-174.356-85.141 24.63 197.526c-20.373 5.352-41.841 7.967-64.342 7.967h-0.061c-22.501 0-43.847-2.615-64.159-7.845l24.569-197.526-174.538 85.202c-7.602-11.92-14.109-24.265-19.46-37.036-6.021-14.231-10.764-29.008-13.988-44.395-3.101-14.413-5.109-29.434-5.899-44.881l189.681-36.854-132.516-144.983c5.23-6.447 10.825-12.711 16.785-18.853 5.899-6.082 11.798-11.738 18.001-17.028 9.487-8.149 19.279-15.569 29.434-22.076 12.711-8.089 25.907-14.899 39.591-20.373l92.804 175.147 92.743-174.964c14.839 5.96 29.13 13.562 42.813 22.684 7.48 4.926 14.717 10.339 21.772 16.238 7.48 6.264 14.839 13.075 21.894 20.312 6.021 6.325 11.738 12.711 17.089 19.339l-132.212 144.557 189.012 36.732c-0.851 17.576-3.284 34.543-7.176 50.841-2.676 11.19-6.203 22.137-10.339 32.658v0z" horiz-adv-x="511" />
<glyph unicode="&#xe602;" d="M0 480h630.154v-118.154h-630.154v118.154zM0 283.077h630.154v-118.154h-630.154v118.154zM0 86.154h630.154v-118.154h-630.154v118.154z" horiz-adv-x="630" />
<glyph unicode="&#xe603;" d="M27.648 123.648l20.48-21.504 208.896 204.8 204.8-207.872 21.504 20.48-226.304 229.376z" />
<glyph unicode="&#xe604;" d="M103.092 235.494c-2.239 0-6.244 0.118-10.957 0.118v30.631c3.123 0 8.129 0.177 12.194 0.177 8.247 0 11.605-2.827 11.605-7.657 0-2.946-1.65-5.537-4.713-6.715v-0.059c3.416-0.942 5.125-3.535 5.125-6.833-0.001-4.595-3.181-9.661-13.254-9.661zM102.856 261.118c-0.942 0-2.18-0.059-3.18-0.059v-7.304c0.883-0.059 1.767-0.059 2.18-0.059 3.593 0 6.008 1.296 6.008 3.946-0.001 2.063-1.178 3.476-5.008 3.476zM102.267 248.983c-0.647 0-1.826 0-2.592-0.059v-7.834c0.883-0.118 2.061-0.177 3.24-0.177 3.711 0 5.419 1.709 5.419 4.242 0 2.71-2.238 3.829-6.067 3.829zM127.045 235.642v30.631h7.854v-30.631h-7.855zM166.195 235.642l-9.189 14.962c-1.060 1.708-2.12 3.888-2.887 5.596h-0.059c0.118-1.472 0.177-3.005 0.177-5.42v-15.138h-7.304v30.631h10.191l8.895-14.609c1.179-1.827 2.238-3.77 3.18-5.832h0.059c-0.118 1.826-0.177 4.358-0.177 7.54l-0.059 12.9h7.363v-30.631h-10.191zM217.373 235.642v30.632h7.853v-30.632h-7.853zM246.669 235.642h-10.014l-11.429 15.924 11.429 14.707h9.307l-11.781-14.707 12.488-15.924zM199.203 235.169c-10.191 0-15.316 5.891-15.316 15.080 0 8.659 5.184 16.494 16.847 16.494 1.826 0 4.3-0.236 6.244-0.766l-0.649-6.656c-1.943 0.648-4.006 1.001-6.008 1.001-5.243 0-8.246-3.77-8.246-9.365 0-5.95 3.298-9.013 8.601-9.013 2.12 0 4.24 0.413 5.891 1.238l0.648-6.715c-2.533-0.825-5.184-1.297-8.011-1.297zM260.517 235.524c-1.885 0-4.654 0.059-7.245 0.118v30.631c2.063 0 4.654 0.118 8.718 0.118 6.951 0 9.719-3.122 9.719-7.245 0-3.416-2.18-6.008-5.89-7.304v-0.059c4.536-0.825 6.656-3.711 6.656-7.127 0-3.121-1.709-9.13-11.957-9.13zM261.224 263.856c-1.649 0-3.358-0.059-4.772-0.059v-11.016c1.296-0.059 2.592-0.059 3.063-0.059 5.655 0 8.954 2.004 8.954 6.067 0 2.828-1.591 5.066-7.245 5.066zM259.515 250.25c-0.589 0-2.238 0-3.063-0.059v-11.84c0.884-0.177 2.297-0.294 4.418-0.294 5.832 0 8.365 2.71 8.365 6.421 0 4.594-4.3 5.773-9.719 5.773zM304.395 235.642l-2.887 7.422h-15.316l-2.945-7.422h-3.24l12.37 30.631h3.358l12.193-30.631h-3.534zM295.854 257.495c-0.767 1.943-1.473 4.006-1.945 5.538h-0.059c-0.471-1.649-1.178-3.652-1.943-5.655l-4.712-11.84h13.313l-4.653 11.958zM337.75 235.642l-13.902 20.853c-1.414 2.179-2.769 4.417-3.829 6.421h-0.059c0.118-2.298 0.295-4.948 0.295-9.072l0.059-18.202h-3.122v30.631h4.065l13.725-20.676c1.355-2.061 2.827-4.299 4.006-6.421h0.059c-0.177 2.238-0.295 6.244-0.295 12.076l-0.059 15.021h3.18v-30.631h-4.124zM373.122 235.642l-14.55 15.668v-15.668h-3.18v30.631h3.18v-14.963l14.373 14.963h4.123l-14.668-14.786 15.198-15.845h-4.476zM80.829 256.411c-0.366 0.901-0.819 1.76-1.357 2.583l-10.88-5.148 1.538 11.943c-1.271 0.322-2.61 0.48-4.013 0.48h-0.005c-1.403 0-2.736-0.158-4.004-0.475l1.534-11.943-10.889 5.153c-0.475-0.72-0.878-1.466-1.212-2.24-0.375-0.86-0.67-1.755-0.873-2.683-0.194-0.873-0.317-1.778-0.366-2.714l11.83-2.226-8.266-8.768c0.326-0.389 0.675-0.768 1.045-1.141 0.366-0.366 0.736-0.709 1.121-1.031 0.593-0.494 1.203-0.941 1.837-1.335 0.792-0.488 1.615-0.9 2.47-1.231l5.791 10.591 5.786-10.577c0.927 0.362 1.819 0.819 2.669 1.37 0.466 0.298 0.918 0.625 1.356 0.982 0.466 0.38 0.924 0.791 1.367 1.23 0.375 0.381 0.733 0.769 1.067 1.167l-8.246 8.74 11.789 2.221c-0.055 1.063-0.203 2.089-0.448 3.072-0.166 0.678-0.383 1.339-0.641 1.977v0z" horiz-adv-x="724" />
<glyph unicode="&#xe605;" d="M103.092 235.494c-2.239 0-6.244 0.118-10.957 0.118v30.631c3.123 0 8.129 0.177 12.194 0.177 8.247 0 11.605-2.827 11.605-7.657 0-2.946-1.65-5.537-4.713-6.715v-0.059c3.416-0.942 5.125-3.535 5.125-6.833-0.001-4.595-3.181-9.661-13.254-9.661zM102.856 261.118c-0.942 0-2.18-0.059-3.18-0.059v-7.304c0.883-0.059 1.767-0.059 2.18-0.059 3.593 0 6.008 1.296 6.008 3.946-0.001 2.063-1.178 3.476-5.008 3.476zM102.267 248.983c-0.647 0-1.826 0-2.592-0.059v-7.834c0.883-0.118 2.061-0.177 3.24-0.177 3.711 0 5.419 1.709 5.419 4.242 0 2.71-2.238 3.829-6.067 3.829zM127.045 235.642v30.631h7.854v-30.631h-7.855zM166.195 235.642l-9.189 14.962c-1.060 1.708-2.12 3.888-2.887 5.596h-0.059c0.118-1.472 0.177-3.005 0.177-5.42v-15.138h-7.304v30.631h10.191l8.895-14.609c1.179-1.827 2.238-3.77 3.18-5.832h0.059c-0.118 1.826-0.177 4.358-0.177 7.54l-0.059 12.9h7.363v-30.631h-10.191zM217.373 235.642v30.632h7.853v-30.632h-7.853zM246.669 235.642h-10.014l-11.429 15.924 11.429 14.707h9.307l-11.781-14.707 12.488-15.924zM199.203 235.169c-10.191 0-15.316 5.891-15.316 15.080 0 8.659 5.184 16.494 16.847 16.494 1.826 0 4.3-0.236 6.244-0.766l-0.649-6.656c-1.943 0.648-4.006 1.001-6.008 1.001-5.243 0-8.246-3.77-8.246-9.365 0-5.95 3.298-9.013 8.601-9.013 2.12 0 4.24 0.413 5.891 1.238l0.648-6.715c-2.533-0.825-5.184-1.297-8.011-1.297zM260.517 235.524c-1.885 0-4.654 0.059-7.245 0.118v30.631c2.063 0 4.654 0.118 8.718 0.118 6.951 0 9.719-3.122 9.719-7.245 0-3.416-2.18-6.008-5.89-7.304v-0.059c4.536-0.825 6.656-3.711 6.656-7.127 0-3.121-1.709-9.13-11.957-9.13zM261.224 263.856c-1.649 0-3.358-0.059-4.772-0.059v-11.016c1.296-0.059 2.592-0.059 3.063-0.059 5.655 0 8.954 2.004 8.954 6.067 0 2.828-1.591 5.066-7.245 5.066zM259.515 250.25c-0.589 0-2.238 0-3.063-0.059v-11.84c0.884-0.177 2.297-0.294 4.418-0.294 5.832 0 8.365 2.71 8.365 6.421 0 4.594-4.3 5.773-9.719 5.773zM304.395 235.642l-2.887 7.422h-15.316l-2.945-7.422h-3.24l12.37 30.631h3.358l12.193-30.631h-3.534zM295.854 257.495c-0.767 1.943-1.473 4.006-1.945 5.538h-0.059c-0.471-1.649-1.178-3.652-1.943-5.655l-4.712-11.84h13.313l-4.653 11.958zM337.75 235.642l-13.902 20.853c-1.414 2.179-2.769 4.417-3.829 6.421h-0.059c0.118-2.298 0.295-4.948 0.295-9.072l0.059-18.202h-3.122v30.631h4.065l13.725-20.676c1.355-2.061 2.827-4.299 4.006-6.421h0.059c-0.177 2.238-0.295 6.244-0.295 12.076l-0.059 15.021h3.18v-30.631h-4.124zM373.122 235.642l-14.55 15.668v-15.668h-3.18v30.631h3.18v-14.963l14.373 14.963h4.123l-14.668-14.786 15.198-15.845h-4.476zM80.829 256.411c-0.366 0.901-0.819 1.76-1.357 2.583l-10.88-5.148 1.538 11.943c-1.271 0.322-2.61 0.48-4.013 0.48h-0.005c-1.403 0-2.736-0.158-4.004-0.475l1.534-11.943-10.889 5.153c-0.475-0.72-0.878-1.466-1.212-2.24-0.375-0.86-0.67-1.755-0.873-2.683-0.194-0.873-0.317-1.778-0.366-2.714l11.83-2.226-8.266-8.768c0.326-0.389 0.675-0.768 1.045-1.141 0.366-0.366 0.736-0.709 1.121-1.031 0.593-0.494 1.203-0.941 1.837-1.335 0.792-0.488 1.615-0.9 2.47-1.231l5.791 10.591 5.786-10.577c0.927 0.362 1.819 0.819 2.669 1.37 0.466 0.298 0.918 0.625 1.356 0.982 0.466 0.38 0.924 0.791 1.367 1.23 0.375 0.381 0.733 0.769 1.067 1.167l-8.246 8.74 11.789 2.221c-0.055 1.063-0.203 2.089-0.448 3.072-0.166 0.678-0.383 1.339-0.641 1.977v0z" horiz-adv-x="724" />
<glyph unicode="&#xe606;" d="M0 257.344h223.936v222.656h64.544v-222.656h223.52v-66.304h-223.552v-223.040h-64.512v223.040h-223.936v66.304z" />
<glyph unicode="&#xe607;" d="M497.913 50.078l-84.863 84.863c22.366 34.904 35.718 76.162 35.718 120.676 0 123.931-100.453 224.383-224.384 224.383-123.915 0-224.384-100.454-224.384-224.383s100.469-224.384 224.384-224.384c44.529 0 85.771 13.335 120.659 35.717l84.862-84.863c18.782-18.782 49.226-18.782 68.008 0s18.782 49.209 0 67.991zM224.384 95.344c-88.51 0-160.274 71.748-160.274 160.274s71.763 160.273 160.274 160.273c88.525 0 160.273-71.747 160.273-160.273s-71.748-160.274-160.273-160.274z" />
<glyph unicode="&#xe608;" d="M288 256v0c-3.2 0-3.2 0-6.4 0s-6.4 0-6.4 0-6.4 0-6.4 0c0 0-3.2 0-3.2 0s-3.2 0-3.2 0-3.2 0-3.2 0-3.2 0-3.2 0-6.4 0-9.6 0c-3.2 0-6.4 0-9.6 0 0 0-3.2 0-3.2 0-3.2 0-6.4 0-9.6 0 0 0-3.2 0-3.2 0h-220.8v-64h224c0 0 0 0 0 0 12.8 0 25.6 0 38.4 0 3.2 0 6.4 0 9.6 0s3.2 0 6.4 0 6.4 0 9.6 0v0h224v64h-224z" />
<glyph unicode="&#xe609;" d="M142.996 231.405c-3.93 0-10.964 0.207-19.239 0.207v53.786c5.482 0 14.274 0.31 21.411 0.31 14.481 0 20.376-4.965 20.376-13.445 0-5.172-2.896-9.723-8.274-11.792v-0.104c5.999-1.655 8.999-6.205 8.999-11.998 0-8.068-5.585-16.964-23.273-16.964zM142.583 276.399c-1.655 0-3.827-0.103-5.585-0.103v-12.826c1.552-0.104 3.103-0.104 3.827-0.104 6.31 0 10.55 2.275 10.55 6.93 0 3.62-2.069 6.103-8.792 6.103zM141.548 255.092c-1.138 0-3.206 0-4.551-0.104v-13.756c1.552-0.208 3.62-0.311 5.689-0.311 6.517 0 9.516 3 9.516 7.447 0 4.758-3.93 6.724-10.654 6.724zM185.055 231.664v53.786h13.791v-53.786h-13.791zM253.8 231.664l-16.136 26.272c-1.862 3-3.724 6.827-5.069 9.827h-0.103c0.207-2.586 0.31-5.276 0.31-9.517v-26.582h-12.826v53.786h17.894l15.619-25.652c2.069-3.206 3.93-6.62 5.586-10.24h0.103c-0.207 3.206-0.31 7.654-0.31 13.24l-0.103 22.652h12.93v-53.786h-17.894zM343.664 231.664v53.786h13.791v-53.786h-13.791zM395.106 231.664h-17.584l-20.069 27.962 20.068 25.824h16.342l-20.687-25.824 21.928-27.962zM311.76 230.837c-17.894 0-26.893 10.344-26.893 26.479 0 15.205 9.103 28.962 29.582 28.962 3.205 0 7.551-0.413 10.963-1.344l-1.138-11.688c-3.413 1.138-7.033 1.758-10.55 1.758-9.205 0-14.481-6.62-14.481-16.445 0-10.447 5.791-15.826 15.101-15.826 3.723 0 7.447 0.725 10.344 2.173l1.138-11.791c-4.448-1.448-9.103-2.275-14.067-2.275zM419.423 231.457c-3.31 0-8.172 0.103-12.723 0.207v53.786c3.62 0 8.172 0.207 15.308 0.207 12.205 0 17.067-5.483 17.067-12.722 0-6-3.827-10.551-10.344-12.826v-0.103c7.964-1.448 11.688-6.517 11.688-12.516-0-5.482-3-16.031-20.997-16.031zM420.663 281.208c-2.897 0-5.896-0.103-8.378-0.103v-19.343c2.275-0.103 4.551-0.103 5.378-0.103 9.93 0 15.722 3.517 15.722 10.654-0 4.965-2.793 8.895-12.723 8.895zM417.663 257.315c-1.034 0-3.93 0-5.378-0.103v-20.791c1.551-0.31 4.034-0.517 7.757-0.517 10.24 0 14.687 4.758 14.687 11.274 0 8.069-7.55 10.137-17.066 10.137zM496.469 231.664l-5.069 13.033h-26.893l-5.172-13.033h-5.688l21.721 53.786h5.896l21.411-53.786h-6.205zM481.471 270.038c-1.345 3.413-2.586 7.034-3.413 9.722h-0.103c-0.827-2.896-2.068-6.413-3.413-9.93l-8.274-20.791h23.377l-8.172 20.998zM555.038 231.664l-24.411 36.615c-2.482 3.827-4.861 7.757-6.723 11.274h-0.104c0.207-4.034 0.518-8.688 0.518-15.929l0.104-31.961h-5.481v53.786h7.136l24.1-36.305c2.379-3.619 4.965-7.55 7.034-11.274h0.104c-0.31 3.93-0.517 10.963-0.517 21.203l-0.104 26.375h5.586v-53.785h-7.24zM617.147 231.664l-25.548 27.513v-27.513h-5.586v53.786h5.586v-26.272l25.238 26.272h7.24l-25.755-25.962 26.686-27.823h-7.861zM103.904 268.135c-0.643 1.582-1.438 3.090-2.382 4.535l-19.104-9.039 2.7 20.971c-2.232 0.565-4.584 0.842-7.046 0.842h-0.008c-2.463 0-4.805-0.276-7.029-0.834l2.693-20.971-19.12 9.048c-0.834-1.263-1.542-2.573-2.129-3.933-0.658-1.508-1.177-3.081-1.533-4.709-0.341-1.532-0.557-3.122-0.643-4.766l20.772-3.908-14.513-15.395c0.572-0.683 1.184-1.35 1.836-2.002 0.643-0.643 1.294-1.246 1.97-1.81 1.040-0.867 2.112-1.654 3.225-2.344 1.391-0.857 2.837-1.581 4.337-2.162l10.168 18.597 10.159-18.572c1.629 0.636 3.193 1.437 4.687 2.406 0.818 0.524 1.612 1.096 2.382 1.725 0.819 0.666 1.621 1.389 2.4 2.16 0.659 0.669 1.287 1.351 1.873 2.050l-14.481 15.347 20.701 3.9c-0.096 1.866-0.356 3.669-0.787 5.393-0.293 1.191-0.677 2.351-1.129 3.47v0z" horiz-adv-x="724" />
<glyph unicode="&#xe60a;" d="M155.732 452.178l-21.679-20.235 204.873-208.847-207.763-204.873 20.595-21.68 229.442 226.552z" />
<glyph unicode="&#xe60b;" d="M356.268-4.539l21.68 20.596-204.873 208.847 207.763 204.873-20.235 21.679-229.442-226.552z" />
<glyph unicode="&#xe60c;" d="M320 96h-256v255.047l64 0.953v64h-128v-384h384v160h-64v-96zM192 416l64-64-96-96 64-64 96 96 64-64v192h-192z" horiz-adv-x="384" />
<glyph unicode="&#xe60d;" d="M0 480l314.159-512 314.205 512h-628.364zM0 480l314.159-512v512h-314.159z" horiz-adv-x="629" />
<glyph unicode="&#xe60e;" d="M628.364-32l-314.205 512-314.159-512h628.364zM314.159-32v512l-314.159-512h314.159z" horiz-adv-x="629" />
<glyph unicode="&#xe60f;" d="M228.928 383.12c13.92 22.528 36.512 22.464 50.416 0l172.56-279.184c18.576-30.064 5.024-54.432-30.224-54.432h-335.088c-35.28 0-48.864 24.288-30.224 54.432l172.56 279.184zM254.144 289.504c-8.848 0-16-7.248-16-15.952v-96.096c0-8.8 7.104-15.952 16-15.952 8.832 0 16 7.248 16 15.952v96.096c0 8.8-7.104 15.952-16 15.952v0zM254.144 97.504c8.832 0 16 7.152 16 16s-7.168 16-16 16c-8.848 0-16-7.152-16-16s7.152-16 16-16v0z" />
<glyph unicode="&#xe610;" d="M0 226.253h0.102v0.069l-0.102-0.069zM497.903 235.912c0 2.799-1.195 5.325-3.106 7.1l-231.97 232.038c-1.741 1.843-4.13 2.969-6.827 3.038v-0.341c-2.696-0.034-5.086-1.229-6.792-3.038l-231.97-232.038c-1.912-1.741-3.14-4.301-3.14-7.065 0-5.359 4.369-9.694 9.694-9.694h54.955v-255.966h128v147.661c0 5.427 4.403 9.83 9.797 9.83h78.745c5.427 0 9.831-4.403 9.831-9.831v-147.695h128.102v256.341h54.954c5.393 0 9.728 4.301 9.728 9.66zM512 225.911l-0.068 0.069v-0.069h0.068z" />
<glyph unicode="&#xe611;" d="M0 480l314.159-512v512h-314.159z" horiz-adv-x="629" />
<glyph unicode="&#xe612;" d="M314.159-32v512l-314.159-512h314.159z" horiz-adv-x="629" />
<glyph unicode="&#xe613;" d="M506.221 49.627l-174.921 175.579 175.324 173.349c7.205 7.204 7.205 18.944 0 26.112l-49.847 50.139c-3.474 3.474-8.156 5.339-13.056 5.339s-9.618-2.012-13.056-5.339l-174.629-172.8-174.775 172.654c-3.475 3.475-8.119 5.34-13.056 5.34s-9.618-1.975-13.093-5.34l-49.737-50.139c-7.205-7.204-7.205-18.944 0-26.148l175.36-173.276-174.811-175.433c-3.474-3.511-5.449-8.156-5.449-13.056s1.865-9.655 5.449-13.056l49.883-50.139c3.584-3.584 8.265-5.486 13.056-5.486 4.681 0 9.472 1.792 13.056 5.486l174.117 174.885 174.299-174.775c3.584-3.657 8.265-5.486 13.056-5.486 4.644 0 9.472 1.792 13.019 5.486l49.883 50.139c3.474 3.438 5.449 8.156 5.449 13.056-0.073 4.791-2.048 9.435-5.522 12.909z" />
<glyph unicode="&#xe614;" d="M384 19.2h-384v-51.2h384v51.2zM376.627 280.217c-9.83 9.831-25.753 9.831-35.558 0l-124.749-124.774v299.392c0 13.901-11.264 25.165-25.165 25.165s-25.165-11.264-25.165-25.165v-299.366l-123.059 123.059c-9.805 9.83-25.728 9.83-35.559 0s-9.831-25.754 0-35.584l165.99-166.067c0.563-0.538 1.203-1.101 1.843-1.639 0.307-0.256 0.589-0.461 0.896-0.691 0.358-0.256 0.717-0.512 1.075-0.743 0.384-0.256 0.743-0.461 1.075-0.691 0.333-0.205 0.666-0.409 1.024-0.589 0.384-0.205 0.768-0.358 1.126-0.538 0.384-0.154 0.717-0.358 1.075-0.512 0.384-0.154 0.743-0.256 1.126-0.409s0.793-0.307 1.178-0.409c0.384-0.154 0.768-0.205 1.126-0.307 0.41-0.103 0.819-0.256 1.255-0.307 0.435-0.103 0.896-0.154 1.331-0.205 0.384-0.051 0.743-0.154 1.101-0.205 1.638-0.154 3.328-0.154 4.966 0 0.384 0.051 0.717 0.154 1.101 0.205 0.435 0.051 0.896 0.103 1.331 0.205 0.41 0.051 0.819 0.205 1.229 0.307s0.768 0.154 1.152 0.307c0.41 0.103 0.793 0.256 1.203 0.409 0.384 0.103 0.743 0.256 1.126 0.409 0.358 0.154 0.743 0.358 1.075 0.512 0.384 0.205 0.768 0.358 1.126 0.538 0.358 0.205 0.666 0.409 1.024 0.589 0.384 0.256 0.743 0.461 1.101 0.691 0.358 0.256 0.717 0.512 1.075 0.743 0.281 0.256 0.589 0.461 0.87 0.691 0.947 0.793 1.843 1.639 2.662 2.56 0.281 0.256 0.563 0.512 0.87 0.793l165.991 166.042c9.959 9.856 9.959 25.779 0.128 35.584z" horiz-adv-x="384" />
<glyph unicode="&#xe615;" d="M312 432h-175.952c-17.712 0-32.048-14.368-32.048-32.112v-367.76c0-17.76 14.256-32.128 31.968-32.128h240.064c17.664 0 31.968 14.368 31.968 31.84v288.16l-96 112zM312 408l75.184-88h-59.248c-8.72 0-15.936 7.232-15.936 16.144v71.856zM392 31.904c0-8.784-7.152-15.904-16-15.904h-240c-8.72 0-16 7.12-16 15.936v368.128c0 8.656 7.136 15.936 15.936 15.936h160.064v-79.904c0-17.904 14.32-32.096 31.968-32.096h64.032v-272.096zM339.056 147.088c-4.416 4.4-11.6 4.4-16 0l-56.112-56.128v146.176c0 6.272-5.072 11.328-11.312 11.328-6.272 0-11.328-5.072-11.328-11.328v-146.176l-55.344 55.36c-4.432 4.416-11.584 4.416-16 0-4.432-4.416-4.432-11.6 0-16.016l74.672-74.656c0.272-0.272 0.544-0.512 0.832-0.768 0.144-0.112 0.288-0.192 0.4-0.304 0.176-0.112 0.32-0.256 0.48-0.352s0.336-0.208 0.48-0.304 0.32-0.192 0.464-0.272c0.16-0.112 0.336-0.176 0.496-0.272 0.192-0.080 0.336-0.144 0.496-0.224 0.176-0.064 0.336-0.128 0.496-0.176 0.192-0.064 0.352-0.16 0.544-0.192 0.176-0.064 0.336-0.096 0.512-0.144 0.192-0.048 0.368-0.096 0.528-0.144 0.224-0.032 0.416-0.048 0.624-0.096 0.176-0.032 0.336-0.048 0.48-0.064 0.736-0.080 1.504-0.080 2.24 0 0.192 0.016 0.336 0.032 0.496 0.064 0.224 0.048 0.4 0.064 0.592 0.096 0.208 0.048 0.368 0.096 0.56 0.144s0.336 0.080 0.512 0.144c0.176 0.032 0.352 0.128 0.544 0.192 0.16 0.032 0.336 0.112 0.496 0.176 0.176 0.080 0.336 0.144 0.48 0.224 0.176 0.096 0.352 0.176 0.512 0.272 0.16 0.080 0.32 0.176 0.448 0.272 0.176 0.096 0.336 0.192 0.48 0.304 0.192 0.112 0.336 0.256 0.496 0.352 0.128 0.112 0.272 0.192 0.4 0.304 0.4 0.352 0.816 0.768 1.184 1.152 0.144 0.128 0.256 0.24 0.4 0.336l74.672 74.688c4.496 4.448 4.496 11.6 0.080 16.032z" />
<glyph unicode="&#xe616;" d="M0.096 207.904c63.68 0 123.552-24.864 168.512-70.144 45.088-45.216 69.888-105.472 69.888-169.632h98.112c0 186.304-150.976 337.92-336.544 337.92v-98.144zM0.224 381.888c226.976 0 411.616-185.696 411.616-413.888h98.112c0 282.336-228.672 512-509.728 512v-98.112zM135.936 36.544c0-37.536-30.432-67.936-67.968-67.936s-67.968 30.4-67.968 67.936c0 37.6 30.432 68 67.968 68 37.504 0 67.968-30.432 67.968-68z" />
<glyph unicode="&#xe617;" d="M32.768 480l581.632-471.142 583.577 471.142 30.822-15.36-614.4-496.64-614.4 496.64z" horiz-adv-x="1229" />
<glyph unicode="&#xe618;" d="M365.127 283.673h-69.052v45.282c0 17.014 11.271 20.97 19.209 20.97 7.921 0 48.732 0 48.732 0v74.76l-67.11 0.253c-74.488 0-91.44-55.758-91.44-91.44v-49.834h-43.078v-77.036h43.078c0-98.854 0-217.983 0-217.983h90.609c0 0 0 120.294 0 217.983h61.149l7.902 77.045z" />
<glyph unicode="&#xe619;" d="M471.586 246.528h-67.841v67.833c0 5.166-4.2 9.375-9.365 9.375h-19.317c-5.202 0-9.401-4.208-9.401-9.375v-67.832h-67.841c-5.166 0-9.384-4.218-9.384-9.401v-19.317c0-5.184 4.217-9.384 9.384-9.384h67.841v-67.859c0-5.184 4.2-9.384 9.401-9.384h19.317c5.166 0 9.365 4.2 9.365 9.384v67.868h67.841c5.166 0 9.384 4.2 9.384 9.384v19.317c0 5.184-4.217 9.393-9.384 9.393zM243.605 187.050c-14.269 10.106-27.247 24.926-27.464 29.486 0 8.291 0.74 12.246 19.335 26.741 24.041 18.821 37.281 43.557 37.281 69.711 0 23.707-7.243 44.767-19.571 59.56h9.573c1.978 0 3.92 0.614 5.491 1.77l26.687 19.336c3.315 2.384 4.705 6.611 3.441 10.485-1.274 3.865-4.849 6.502-8.923 6.502h-119.355c-13.050 0-26.326-2.303-39.339-6.782-43.494-15-73.919-52.065-73.919-90.113 0-53.906 41.76-94.764 97.59-96.046-1.093-4.281-1.653-8.48-1.653-12.608 0-8.308 2.104-16.175 6.439-23.779-0.506 0-0.984 0-1.536 0-53.211 0-101.239-26.109-119.472-64.961-4.751-10.106-7.171-20.32-7.171-30.408 0-9.808 2.51-19.245 7.46-28.105 11.46-20.51 36.061-36.404 69.332-44.803 17.159-4.335 35.609-6.557 54.765-6.557 17.214 0 33.632 2.221 48.795 6.611 47.305 13.736 77.893 48.56 77.893 88.757 0 38.563-12.399 61.656-45.679 85.2zM92.867 98.752c0 28.050 35.645 52.67 76.277 52.67h1.093c8.841-0.118 17.466-1.409 25.594-3.911 2.791-1.923 5.473-3.757 8.065-5.518 18.821-12.824 31.256-21.277 34.715-34.86 0.822-3.423 1.228-6.846 1.228-10.16 0-34.942-26.064-52.651-77.469-52.651-38.978 0-69.504 23.897-69.504 54.43zM129.84 363.878c6.349 7.252 14.667 11.090 24.005 11.090l1.056-0.018c26.38-0.786 51.622-30.182 56.255-65.538 2.61-19.787-1.788-38.41-11.75-49.752-6.367-7.27-14.567-11.099-24.275-11.099 0 0 0 0-0.018 0h-0.434c-25.829 0.794-51.622 31.311-56.237 66.623-2.583 19.742 1.572 37.488 11.397 48.696z" />
<glyph unicode="&#xe61a;" d="M268.19 480l268.19-268.19h-67.048v-234.666h-134.095v167.619h-134.095v-167.619h-134.095v234.667h-67.047l268.19 268.19z" horiz-adv-x="537" />
<glyph unicode="&#xe61b;" d="M74.638 341.333v-74.666h-32c-23.581 0-42.666-19.114-42.666-42.666v-213.362c0-23.552 19.086-42.638 42.666-42.638h341.333c23.552 0 42.666 19.086 42.666 42.638v213.362c0 23.552-19.115 42.667-42.666 42.667h-32v74.666c0 76.544-62.094 138.666-138.667 138.666-76.544 0-138.667-62.122-138.667-138.666zM128 266.667v74.666c0 47.132 38.173 85.334 85.334 85.334 47.132 0 85.305-38.201 85.305-85.334v-74.666h-170.638zM170.638 149.334c0 23.552 19.086 42.61 42.667 42.61s42.695-19.058 42.695-42.61c0-15.075-7.822-28.302-19.57-35.868 0 0 4.153-25.202 8.875-54.87 0-8.846-7.168-15.986-16.014-15.986h-32c-8.875 0-16.014 7.139-16.014 15.986l8.846 54.87c-11.69 7.566-19.484 20.764-19.484 35.868z" horiz-adv-x="427" />
<glyph unicode="&#xe61c;" d="M183.949 354.649c15.45 2.918 25.575-14.502 33.28-26.521 7.501-11.673 16.73-25.37 13.005-40.563-2.073-8.525-9.779-13.171-15.603-18.202-5.747-4.966-14.502-9.523-16.627-17.152-3.469-12.377 4.121-25.369 8.819-32.768 10.675-16.717 23.577-31.783 40.051-45.248 7.975-6.528 19.046-15.232 30.144-13.005 16.576 3.353 20.954 23.795 39.002 26.522 17.178 2.599 28.8-9.856 38.502-18.202 9.331-8.077 24.423-18.419 23.399-32.256-0.601-7.949-6.976-12.877-12.519-17.677-5.606-4.915-10.534-10.419-16.103-14.041-13.466-8.793-29.952-13.082-48.883-12.493-18.573 0.576-33.37 6.873-46.81 14.041-26.253 14.003-47.001 33.702-66.547 55.654-19.226 21.594-36.979 47.142-46.797 75.379-12.25 35.277-5.773 71.513 14.054 94.118 3.353 3.84 8.653 7.846 13.504 11.968 4.851 4.16 9.331 9.165 16.128 10.445z" />
<glyph unicode="&#xe61d;" d="M497.888-17.92c-18.784-18.784-49.216-18.784-68 0l-84.864 84.832c-34.88-22.368-76.128-35.68-120.672-35.68-123.936 0-224.384 100.448-224.384 224.384s100.48 224.384 224.384 224.384 224.384-100.448 224.384-224.384c0-44.512-13.344-85.792-35.712-120.672l84.864-84.864c18.816-18.784 18.816-49.216 0-68zM224.384 415.872c-88.512 0-160.288-71.744-160.288-160.256 0-88.544 71.776-160.288 160.288-160.288s160.256 71.744 160.256 160.288c0 88.512-71.744 160.256-160.256 160.256z" />
<glyph unicode="&#xe61e;" d="M477.176 343.947c-16.356-7.27-33.957-12.174-52.425-14.369 18.857 11.289 33.315 29.161 40.134 50.502-17.637-10.467-37.163-18.062-57.962-22.162-16.654 17.737-40.378 28.827-66.623 28.827-50.402 0-91.269-40.865-91.269-91.278 0-7.144 0.804-14.106 2.366-20.798-75.852 3.811-143.125 40.143-188.145 95.368-7.857-13.465-12.346-29.152-12.346-45.887 0-31.672 16.103-59.615 40.595-75.969-14.947 0.478-29.035 4.588-41.336 11.425-0.009-0.38-0.009-0.768-0.009-1.156 0-44.216 31.456-81.099 73.215-89.498-7.659-2.068-15.723-3.197-24.050-3.197-5.879 0-11.605 0.569-17.168 1.644 11.614-36.26 45.327-62.658 85.254-63.399-31.238-24.483-70.578-39.069-113.359-39.069-7.361 0-14.63 0.433-21.774 1.283 40.405-25.91 88.379-41.010 139.919-41.010 167.897 0 259.698 139.079 259.698 259.698 0 3.956-0.082 7.902-0.253 11.831 17.827 12.824 33.307 28.909 45.535 47.214z" />
<glyph unicode="&#xe61f;" d="M396.565 225.232h-281.129c-44.686 0-80.909-36.269-80.909-80.936v-65.033c0-44.677 36.224-80.928 80.909-80.928h281.129c44.677 0 80.909 36.251 80.909 80.928v65.033c0 44.677-36.233 80.936-80.909 80.936zM174.499 174.604h-26.136v-129.867h-25.26v129.867h-26.109v22.090h77.505v-22.090zM248.328 44.737h-22.388v12.283c-4.163-4.543-8.462-8.019-12.941-10.349-4.48-2.438-8.805-3.577-13.005-3.577-5.202 0-9.067 1.652-11.714 5.012-2.601 3.351-3.938 8.317-3.938 15.027v93.716h22.397v-86.003c0-2.655 0.496-4.56 1.382-5.744 0.966-1.219 2.501-1.779 4.615-1.779 1.625 0 3.712 0.776 6.232 2.357 2.537 1.589 4.85 3.577 6.963 6.033v85.154h22.388v-112.13zM329.644 67.884c0-7.93-1.752-14.017-5.274-18.252-3.495-4.245-8.606-6.331-15.226-6.331-4.407 0-8.327 0.795-11.731 2.447-3.423 1.625-6.647 4.127-9.591 7.595v-8.589h-22.668v151.939h22.668v-48.94c3.034 3.387 6.24 6.014 9.6 7.767 3.423 1.797 6.863 2.673 10.349 2.673 7.089 0 12.49-2.375 16.229-7.144 3.757-4.777 5.627-11.786 5.627-20.952v-62.215h0.018zM407.339 98.093h-42.861v-21.123c0-5.889 0.723-9.988 2.185-12.274 1.499-2.294 4.010-3.414 7.604-3.414 3.721 0 6.295 0.966 7.794 2.899 1.436 1.95 2.212 6.195 2.212 12.788v5.094h23.065v-5.753c0-11.488-2.8-20.149-8.462-25.991-5.572-5.798-13.971-8.661-25.134-8.661-10.043 0-17.963 3.062-23.724 9.221-5.735 6.132-8.661 14.622-8.661 25.423v50.358c0 9.682 3.197 17.665 9.555 23.779 6.331 6.114 14.486 9.166 24.519 9.166 10.269 0 18.152-2.827 23.652-8.489 5.491-5.68 8.255-13.808 8.255-24.438v-28.584zM374.483 140.015c-3.577 0-6.123-0.993-7.676-3.098-1.589-1.969-2.33-5.337-2.33-10.043v-11.334h19.796v11.334c0 4.705-0.795 8.092-2.366 10.043-1.499 2.086-4.019 3.098-7.423 3.098zM297.204 140.394c-1.589 0-3.197-0.352-4.741-1.084-1.572-0.714-3.106-1.897-4.624-3.432v-69.829c1.797-1.806 3.577-3.197 5.31-3.991 1.725-0.767 3.522-1.201 5.428-1.201 2.755 0 4.75 0.795 6.051 2.402 1.274 1.589 1.923 4.127 1.923 7.712v57.899c0 3.811-0.759 6.656-2.348 8.615-1.652 1.933-3.983 2.908-6.999 2.908zM152.246 264.175h28.394v69.449l33.063 97.969h-28.863l-17.575-66.921h-1.788l-18.451 66.921h-28.602l33.822-101.094zM252.175 261.059c11.478 0 20.474 3.008 27.021 9.022 6.521 6.042 9.772 14.287 9.772 24.853v63.787c0 9.401-3.332 17.141-9.971 23.119-6.683 5.952-15.245 8.95-25.694 8.95-11.47 0-20.591-2.836-27.382-8.498-6.774-5.662-10.178-13.257-10.178-22.858v-64.012c0-10.503 3.305-18.812 9.934-25.034 6.62-6.214 15.47-9.329 26.497-9.329zM241.718 360.374c0 2.682 0.958 4.849 2.845 6.547 1.959 1.671 4.444 2.466 7.532 2.466 3.333 0 6.033-0.804 8.092-2.466 2.050-1.698 3.070-3.865 3.070-6.547v-67.291c0-3.296-1.002-5.916-3.034-7.803-2.023-1.897-4.724-2.827-8.128-2.827-3.333 0-5.898 0.903-7.713 2.8-1.779 1.851-2.682 4.452-2.682 7.839l0.018 67.282zM327.052 262.369c4.741 0 9.609 1.354 14.622 3.955 5.075 2.637 9.925 6.493 14.531 11.524v-13.691h25.224v123.51h-25.224v-93.743c-2.348-2.682-4.958-4.886-7.757-6.629-2.845-1.734-5.202-2.601-7.045-2.601-2.375 0-4.109 0.641-5.13 1.996-1.038 1.291-1.625 3.404-1.625 6.303v94.673h-25.188v-103.216c0-7.361 1.481-12.861 4.398-16.509 2.981-3.702 7.334-5.572 13.195-5.572z" />
<glyph unicode="&#xe620;" d="M268.868 18.142c-6.827-11.947-18.056-11.947-24.917 0l-105.028 182.921c-6.861 11.947-18.090 31.471-24.951 43.417l-105.063 181.316c-6.861 11.947-1.194 20.070 12.561 20.070h209.92c13.756 0 36.318 0 50.074 0h209.886c13.755 0 19.387-8.123 12.561-20.070l-105.029-182.101c-6.861-11.947-18.056-31.096-24.918-43.008l-105.096-182.545z" />
<glyph unicode="&#xe621;" d="M256 480.348c-135.701 0-246.108-110.408-246.108-246.108s110.407-246.108 246.108-246.108 246.108 110.407 246.108 246.108-110.407 246.108-246.108 246.108zM256 38.82c-107.766 0-195.42 87.654-195.42 195.42s87.655 195.42 195.42 195.42 195.42-87.654 195.42-195.42-87.675-195.42-195.42-195.42z" />
<glyph unicode="&#xe622;" d="M353.792 234.24c0-54.009-43.783-97.792-97.792-97.792s-97.792 43.783-97.792 97.792c0 54.009 43.783 97.792 97.792 97.792s97.792-43.783 97.792-97.792zM256 480.348c-135.701 0-246.108-110.408-246.108-246.108s110.407-246.108 246.108-246.108 246.108 110.407 246.108 246.108-110.407 246.108-246.108 246.108zM256 38.82c-107.766 0-195.42 87.654-195.42 195.42s87.655 195.42 195.42 195.42 195.42-87.654 195.42-195.42-87.675-195.42-195.42-195.42z" />
<glyph unicode="&#xe623;" d="M422.999 472.046l80.986-80.964-404.747-404.861-80.987 80.964 404.747 404.861zM504.013 67.197l-80.975-80.975-404.803 404.803 80.975 80.975 404.803-404.803z" />
<glyph unicode="&#xe624;" d="M396.6 320l19.4-20.7-160-171.3-160 171.3 19.3 20.7 140.7-150.5z" />
<glyph unicode="&#xe625;" d="M-0.044 224c0 70.75 57.25 128 128 128 70.719 0 128-57.25 128-128s-57.281-128-128-128c-70.749 0-128 57.25-128 128z" horiz-adv-x="256" />
<glyph unicode="&#xe626;" d="M0 390.397l166.371-166.421-166.371-166.371 89.555-89.603 256.024 255.976-256.024 256.024z" horiz-adv-x="346" />
<glyph unicode="&#xe627;" d="M0-32h213.351l-213.351 213.351v-213.351zM512 480h-213.351l213.351-213.351v213.351zM378.573 259.84l-86.733 86.784 75.418 75.418 86.733-86.784zM145.767 26.983l-86.733 86.835 75.418 75.418 86.784-86.784z" />
<glyph unicode="&#xe628;" d="M0 478.413h153.6v-511.181h-153.6v511.181zM358.4 478.413h153.6v-511.181h-153.6v511.181z" />
<glyph unicode="&#xe629;" d="M16 224c0 132.55 107.45 240 240 240s240-107.45 240-240-107.45-240-240-240-240 107.45-240 240z" />
<glyph unicode="&#xe62a;" d="M369.088 246.4c15.245-8.8 15.245-23.2 0-32l-160.576-92.704c-15.238-8.8-27.712-1.6-27.712 16v185.408c0 17.6 12.474 24.8 27.712 16l160.576-92.704z" />
<glyph unicode="&#xe62b;" d="M291.84 259.84h213.299l-213.299 213.299v-213.299zM425.267 480l86.733-86.784-75.418-75.418-86.733 86.733zM221.235 189.235h-213.351l213.351-213.299v213.299zM75.469 130.202l86.681-86.784-75.367-75.418-86.784 86.784z" />
<glyph unicode="&#xe62c;" d="M472.883 269.773c50.381-25.191 50.381-66.407 0-91.597l-380.007-190.003c-50.381-25.191-91.597 0.307-91.597 56.627v358.4c0 56.32 41.216 81.817 91.597 56.576l380.007-190.003z" />
<glyph unicode="&#xe62d;" d="M215.706-32v112.64l-215.706-112.64zM251.853-32h218.777v245.811l-218.778-114.279zM506.726-32h218.778v378.829l-218.778-114.227zM761.702 365.721v-397.721h218.778v512z" horiz-adv-x="1280" />
<glyph unicode="&#xe62e;" d="M513.076 480l-272.22-337.884-162.155 130.622-78.701-97.668 256.939-207.070 350.888 435.66z" horiz-adv-x="608" />
<glyph unicode="&#xe62f;" d="M345.5 57.603l-166.371 166.421 166.371 166.371-89.555 89.604-256.024-255.976 256.024-256.024z" horiz-adv-x="346" />
</font>
</defs>
</svg>
